<?xml version="1.0" encoding="UTF-8"?>
<svg width="225px" height="169px" viewBox="0 0 225 169" version="1.1" xmlns="http://www.w3.org/2000/svg" xmlns:xlink="http://www.w3.org/1999/xlink">
    <!-- Generator: Sketch 52.3 (67297) - http://www.bohemiancoding.com/sketch -->
    <title>Group 3</title>
    <desc>Created with Sketch.</desc>
    <defs>
        <polygon id="path-1" points="0 0 225 0 225 169 0 169"></polygon>
    </defs>
    <g id="Page-1" stroke="none" stroke-width="1" fill="none" fill-rule="evenodd">
        <g id="Group-3">
            <mask id="mask-2" fill="white">
                <use xlink:href="#path-1"></use>
            </mask>
            <g id="Clip-2"></g>
            <path d="M212.984522,109.073878 C209.085196,109.073878 205.622437,107.049213 203.429686,103.932817 C189.201614,114.085917 172.383913,133.568358 172.383913,169 C172.383913,169 150.277815,147.542518 112.723244,147.542518 L112.614102,147.542518 L112.504961,147.542518 C74.9503903,147.542518 52.8343696,169 52.8343696,169 C52.8343696,133.44926 35.9075275,113.94697 21.6496891,103.813719 C19.4569387,106.999589 15.9644133,109.073878 12.0154782,109.073878 C5.37769546,109.073878 0,103.248003 0,96.0525018 C0,88.8570002 5.37769546,83.0311252 12.0154782,83.0311252 C17.8892711,83.0311252 22.7807911,87.6064717 23.8225956,93.650693 C52.6756185,98.3947616 72.7080302,122.283827 72.7080302,122.283827 C72.7080302,86.1971459 96.9969573,42.2301503 107.623363,24.7227508 C103.624818,22.608762 100.866517,18.1723632 100.866517,13.0213766 C100.866517,5.83579986 106.23429,0 112.881995,0 C119.509856,0 124.897473,5.83579986 124.897473,13.0213766 C124.897473,18.3410853 121.950655,22.9065069 117.733827,24.9311722 C128.419765,42.5775194 152.510253,86.3261687 152.510253,122.283827 C152.510253,122.283827 172.443445,98.5535588 201.167482,93.7300916 C202.179521,87.646171 207.080963,83.0212004 212.984522,83.0212004 C219.622305,83.0212004 225,88.8570002 225,96.0525018 C225,103.248003 219.622305,109.073878 212.984522,109.073878" id="Fill-1" fill="#AB2227" mask="url(#mask-2)"></path>
        </g>
    </g>
</svg>