<?xml version="1.0" encoding="UTF-8"?>
<svg width="287px" height="368px" viewBox="0 0 287 368" version="1.1" xmlns="http://www.w3.org/2000/svg" xmlns:xlink="http://www.w3.org/1999/xlink">
    <!-- Generator: Sketch 52.3 (67297) - http://www.bohemiancoding.com/sketch -->
    <title>Group 45</title>
    <desc>Created with Sketch.</desc>
    <defs>
        <polygon id="path-1" points="0.105016575 0.800822134 286.512265 0.800822134 286.512265 215.509499 0.105016575 215.509499"></polygon>
        <polygon id="path-3" points="0.621825414 0.547069565 238.777459 0.547069565 238.777459 67.536 0.621825414 67.536"></polygon>
        <polygon id="path-5" points="0.105016575 0.515365217 48.7778122 0.515365217 48.7778122 314.100788 0.105016575 314.100788"></polygon>
    </defs>
    <g id="Page-1" stroke="none" stroke-width="1" fill="none" fill-rule="evenodd">
        <g id="Group-45" transform="translate(0.000000, -34.000000)">
            <g id="Group-17" transform="translate(87.000000, 34.000000)" fill="#0F3356">
                <path d="M59.5730556,3.72709589 L58.6115278,1.18145205 L76.4141667,11.4101096 C76.2847917,11.4863836 76.165,11.5753699 76.0611806,11.6818356 L75.1092361,12.6479726 L59.5730556,3.72709589 Z M38.1015972,12.6495616 L53.6313889,3.72709589 L54.5977083,1.18463014 L36.7950694,11.4101096 C36.9244444,11.4863836 37.0442361,11.5753699 37.15125,11.6818356 L38.1015972,12.6495616 Z M38.1015972,37.0937808 L37.15125,38.0630959 C37.0442361,38.1695616 36.9276389,38.260137 36.7998611,38.336411 L54.5977083,48.5587123 L53.6313889,46.0162466 L38.1015972,37.0937808 Z M47.3878472,23.0593699 L48.3334028,23.0593699 L49.1799306,23.0593699 L56.0943056,4.814 L56.3514583,4.13865753 L56.6054167,3.46808219 L56.8609722,4.14342466 L57.1149306,4.81717808 L64.0309028,23.0593699 L64.8758333,23.0593699 L65.886875,23.0593699 L58.0397222,2.37482192 L57.7809722,1.70265753 L57.4120139,0.722219178 C57.4120139,0.715863014 57.4088194,0.709506849 57.4040278,0.703150685 C57.3960417,0.684082192 57.3880556,0.665013699 57.3752778,0.649123288 C57.3672917,0.626876712 57.3593056,0.607808219 57.3465278,0.588739726 C57.3353472,0.568082192 57.3225694,0.549013699 57.3097917,0.528356164 C57.2970139,0.514054795 57.2842361,0.499753425 57.2730556,0.482273973 C57.2554861,0.461616438 57.2395139,0.442547945 57.2171528,0.423479452 C57.2107639,0.413945205 57.1979861,0.401232877 57.1852083,0.390109589 C57.1644444,0.374219178 57.146875,0.358328767 57.1277083,0.344027397 C57.1069444,0.329726027 57.089375,0.315424658 57.0686111,0.302712329 C57.0510417,0.291589041 57.031875,0.278876712 57.0063194,0.267753425 C56.9855556,0.255041096 56.9647917,0.24709589 56.9440278,0.237561644 C56.9248611,0.228027397 56.9040972,0.218493151 56.8817361,0.213726027 C56.8705556,0.208958904 56.8609722,0.205780822 56.8481944,0.20260274 C56.8322222,0.199424658 56.81625,0.194657534 56.8002778,0.189890411 L56.7954861,0.189890411 C56.7779167,0.186712329 56.7619444,0.178767123 56.7459722,0.177178082 C56.7044444,0.170821918 56.658125,0.167643836 56.6118056,0.164465753 L56.6054167,0.164465753 C56.5543056,0.164465753 56.5047917,0.170821918 56.4600694,0.177178082 C56.4504861,0.178767123 56.4425,0.181945205 56.4345139,0.183534247 C56.4265278,0.186712329 56.41375,0.18830137 56.4025694,0.193068493 C56.3897917,0.194657534 56.3770139,0.196246575 56.3642361,0.201013699 C56.3514583,0.205780822 56.3354861,0.208958904 56.3179167,0.215315068 C56.3067361,0.218493151 56.2971528,0.223260274 56.284375,0.228027397 C56.2524306,0.240739726 56.2236806,0.255041096 56.1949306,0.269342466 C56.1901389,0.270931507 56.1901389,0.274109589 56.1901389,0.274109589 L56.1534028,0.293178082 C56.1182639,0.313835616 56.0895139,0.336082192 56.0607639,0.358328767 C56.0527778,0.366273973 56.0447917,0.372630137 56.0368056,0.378986301 C56.0080556,0.402821918 55.9825,0.428246575 55.9585417,0.455260274 C55.95375,0.460027397 55.9505556,0.464794521 55.9457639,0.467972603 C55.8994444,0.523589041 55.8579167,0.587150685 55.8259722,0.653890411 C55.8259722,0.658657534 55.8259722,0.661835616 55.8211806,0.66660274 C55.8131944,0.685671233 55.8004167,0.703150685 55.7972222,0.722219178 L55.4234722,1.69789041 L55.1663194,2.37164384 L50.6190278,14.3847945 L47.3878472,23.0593699 Z M46.4965972,27.1924658 L45.9998611,25.8703836 L45.8656944,25.5207945 C45.8593056,25.5033151 45.8545139,25.4826575 45.8497222,25.462 C45.8417361,25.4461096 45.8369444,25.4270411 45.8305556,25.4079726 L45.6884028,25.5525753 L40.0581944,31.2810685 L36.7136111,34.6832055 L36.7136111,34.0030959 L36.7136111,33.3213973 L36.7136111,16.4251233 L36.7136111,15.7418356 L36.7136111,15.061726 L45.6884028,24.1907671 L45.8305556,24.3369589 C45.8880556,24.1605753 45.963125,23.9953151 46.0701389,23.8411781 C46.1404167,23.7410685 46.2186806,23.6504932 46.3049306,23.567863 C46.3400694,23.5329041 46.3768056,23.5011233 46.4103472,23.4725205 C46.4295139,23.4582192 46.4470833,23.4455068 46.4678472,23.4312055 C46.5141667,23.3962466 46.5636806,23.3628767 46.6131944,23.3310959 C46.6211806,23.3263288 46.6291667,23.3231507 46.6371528,23.3167945 C46.6706944,23.296137 46.7090278,23.2738904 46.7457639,23.256411 C46.8447917,23.2039726 46.9581944,23.1626575 47.07,23.1308767 L46.86875,22.9274795 L46.4965972,22.5524658 L39.4113194,15.3429863 L36.4676389,12.3476438 C36.3015278,12.1823836 36.0779167,12.0870411 35.8463194,12.0870411 C35.7329167,12.0870411 35.6227083,12.1076986 35.5172917,12.1506027 C35.4821528,12.1664932 35.4438194,12.1855616 35.411875,12.2062192 C35.3559722,12.2348219 35.31125,12.2713699 35.2697222,12.3095068 C35.2569444,12.3174521 35.2489583,12.3253973 35.2409722,12.3349315 C35.1994444,12.3778356 35.1611111,12.4207397 35.1291667,12.468411 C35.095625,12.5176712 35.0716667,12.5701096 35.0493056,12.6225479 C35.0429167,12.6336712 35.038125,12.6447945 35.0333333,12.6575068 C35.0173611,12.7131233 34.9997917,12.7703288 34.9918056,12.8291233 C34.9886111,12.8323014 34.9886111,12.8386575 34.9886111,12.8450137 C34.9838194,12.8799726 34.9790278,12.9149315 34.9790278,12.9498904 L34.9790278,13.979589 L34.9790278,14.6628767 L34.9790278,35.0820548 L34.9790278,35.7621644 L34.9790278,36.7950411 C34.9790278,36.83 34.9838194,36.8649589 34.9886111,36.8999178 C34.9886111,36.9046849 34.9886111,36.907863 34.9918056,36.9142192 C34.9997917,36.9761918 35.0173611,37.0349863 35.038125,37.0906027 C35.038125,37.0985479 35.0429167,37.1049041 35.0461111,37.1144384 C35.0876389,37.2272603 35.1579167,37.3289589 35.2489583,37.4131781 C35.25375,37.4211233 35.2617361,37.4243014 35.2649306,37.4322466 C35.31125,37.4703836 35.3559722,37.5085205 35.411875,37.5371233 C35.4438194,37.5593699 35.4821528,37.5752603 35.5172917,37.5927397 C35.8415278,37.7214521 36.2264583,37.642 36.4676389,37.3956986 L37.2470833,36.6043562 L46.4965972,27.1924658 Z M75.1092361,37.0937808 L59.5730556,46.0178356 L58.6115278,48.5587123 L76.4109722,38.336411 C76.2815972,38.260137 76.165,38.1695616 76.0611806,38.0630959 L75.1092361,37.0937808 Z M78.2222222,12.8386575 L78.2222222,12.8307123 C78.2142361,12.7703288 78.1966667,12.7083562 78.1759028,12.6511507 C78.1711111,12.6447945 78.1711111,12.6400274 78.163125,12.6320822 C78.1215972,12.5192603 78.0513194,12.4143836 77.9650694,12.3317534 C77.9554861,12.3253973 77.9522917,12.3174521 77.9427083,12.314274 C77.8979861,12.2729589 77.8516667,12.2348219 77.7989583,12.2062192 C77.7654167,12.1855616 77.7286806,12.1664932 77.6919444,12.1506027 C77.5865278,12.1076986 77.4747222,12.0870411 77.3629167,12.0870411 C77.1313194,12.0870411 76.9077083,12.1823836 76.7415972,12.3476438 L75.9653472,13.1389863 L66.7078472,22.5540548 L66.3388889,22.9290685 L66.1440278,23.1308767 C66.1520139,23.1324658 66.1615972,23.1372329 66.1679861,23.1388219 C66.1679861,23.1388219 66.174375,23.140411 66.1775694,23.143589 C66.2446528,23.1626575 66.3101389,23.1880822 66.3724306,23.2135068 C66.3804167,23.219863 66.39,23.2230411 66.3979861,23.2262192 C66.4219444,23.2357534 66.4427083,23.2452877 66.4634722,23.256411 C66.4954167,23.2723014 66.5289583,23.2913699 66.5593056,23.3088493 C66.5752778,23.3199726 66.5960417,23.3295068 66.6136111,23.3422192 C66.6551389,23.3660548 66.691875,23.3930685 66.7286111,23.4232603 C66.7589583,23.4407397 66.7829167,23.4598082 66.8084722,23.4820548 C66.8372222,23.5043014 66.8659722,23.529726 66.8915278,23.5567397 C66.9825694,23.6425479 67.0640278,23.7347123 67.1390972,23.8411781 C67.2221528,23.9587671 67.2892361,24.0874795 67.33875,24.2193699 C67.3547222,24.2559178 67.3675,24.2972329 67.3802778,24.3369589 L67.5208333,24.1907671 L76.4972222,15.061726 L76.4972222,15.7418356 L76.4972222,16.4251233 L76.4972222,33.3213973 L76.4972222,34.0030959 L76.4972222,34.6832055 L73.1542361,31.2810685 L67.5208333,25.5525753 L67.3802778,25.4079726 C67.3675,25.4429315 67.3595139,25.4778904 67.3467361,25.5096712 L67.209375,25.8719726 L66.7078472,27.1892877 L66.7078472,27.1924658 L75.9653472,36.6043562 L76.7415972,37.3956986 C76.9859722,37.642 77.3677083,37.7246301 77.6919444,37.5927397 C77.7286806,37.5752603 77.7654167,37.5593699 77.7989583,37.5371233 C77.8516667,37.5085205 77.8979861,37.4703836 77.9427083,37.4322466 C77.9522917,37.4243014 77.9554861,37.4211233 77.9650694,37.4131781 C78.0513194,37.3289589 78.1215972,37.2272603 78.163125,37.1144384 C78.1679167,37.1049041 78.1711111,37.0985479 78.1759028,37.0906027 C78.1966667,37.0349863 78.2142361,36.9761918 78.2222222,36.9142192 L78.2222222,36.9046849 C78.2254167,36.8665479 78.2302083,36.831589 78.2302083,36.7950411 L78.2302083,35.7621644 L78.2302083,35.0820548 L78.2302083,14.6628767 L78.2302083,13.979589 L78.2302083,12.9498904 C78.2302083,12.9117534 78.2254167,12.8767945 78.2222222,12.8386575 Z M65.5961806,27.4228767 L58.0397222,47.3685205 L57.7857639,48.042274 L57.4120139,49.0211233 C57.4120139,49.0274795 57.4088194,49.0306575 57.4088194,49.0370137 C57.3960417,49.0592603 57.3880556,49.0830959 57.3720833,49.1037534 C57.3672917,49.1212329 57.3593056,49.1387123 57.3513194,49.1514247 C57.3353472,49.1768493 57.3225694,49.1990959 57.3065972,49.2213425 C57.2970139,49.2356438 57.2842361,49.2467671 57.2778472,49.2594795 C57.2554861,49.281726 57.2395139,49.3039726 57.2171528,49.3230411 C57.2059722,49.3325753 57.1979861,49.3436986 57.1852083,49.3516438 C57.1644444,49.3707123 57.1436806,49.3897808 57.118125,49.4056712 C57.1069444,49.4136164 57.0941667,49.4263288 57.0813889,49.434274 C57.060625,49.4469863 57.0446528,49.4565205 57.0222917,49.4676438 C57.0143056,49.472411 57.0063194,49.4787671 56.9983333,49.4803562 C56.9855556,49.4883014 56.974375,49.4946575 56.9615972,49.4994247 C56.9568056,49.5010137 56.9536111,49.5026027 56.9488194,49.5057808 C56.9440278,49.5089589 56.9328472,49.512137 56.9248611,49.513726 C56.9152778,49.5184932 56.9040972,49.5216712 56.8961111,49.5264384 C56.8657639,49.5375616 56.8322222,49.5455068 56.8034722,49.5534521 C56.8002778,49.5534521 56.7906944,49.5566301 56.7875,49.5566301 C56.75875,49.5629863 56.7379861,49.5645753 56.7108333,49.5661644 C56.70125,49.5661644 56.686875,49.5709315 56.6709028,49.5709315 C56.6661111,49.5725205 56.6629167,49.5709315 56.6629167,49.5709315 C56.6421528,49.5725205 56.6245833,49.5788767 56.6054167,49.5788767 C56.5830556,49.5788767 56.5638889,49.5725205 56.543125,49.5709315 L56.5303472,49.5709315 L56.5223611,49.5709315 C56.4888194,49.5661644 56.4600694,49.5645753 56.4265278,49.5582192 C56.4217361,49.5566301 56.41375,49.5534521 56.4057639,49.5534521 C56.3770139,49.5455068 56.3450694,49.5375616 56.3099306,49.5264384 C56.2971528,49.5200822 56.284375,49.5169041 56.2731944,49.5105479 L56.2684028,49.5105479 C56.2684028,49.5089589 56.2652083,49.5057808 56.2604167,49.5057808 C56.2396528,49.4946575 56.2188889,49.4867123 56.2029167,49.4787671 C56.1949306,49.472411 56.1821528,49.4676438 56.1741667,49.4612877 C56.1613889,49.4549315 56.1534028,49.4485753 56.140625,49.4422192 C56.1150694,49.4279178 56.0943056,49.4104384 56.0735417,49.396137 C56.0607639,49.3834247 56.0447917,49.3723014 56.0320139,49.359589 C56.0128472,49.3421096 55.9920833,49.3214521 55.9745139,49.3039726 C55.9617361,49.2928493 55.9505556,49.280137 55.9409722,49.2690137 C55.9202083,49.2451781 55.9042361,49.2181644 55.8834722,49.1895616 C55.8786806,49.1816164 55.8706944,49.1736712 55.8675,49.165726 C55.8499306,49.1339452 55.8339583,49.1021644 55.8163889,49.0687945 C55.8131944,49.0624384 55.8131944,49.0576712 55.81,49.0513151 C55.8052083,49.0417808 55.8004167,49.0306575 55.7972222,49.0211233 L55.4234722,48.043863 L55.1663194,47.3716986 L47.6114583,27.4228767 L47.4261806,26.931863 L47.3271528,26.6680822 L47.3271528,26.6664932 L47.2393056,26.4392603 L47.1195139,26.1309863 L47.1195139,26.1278082 L46.8240278,25.346 L46.7585417,25.1807397 L46.7585417,25.1743836 C46.7329861,25.1108219 46.7170139,25.0409041 46.7090278,24.9725753 L46.7090278,24.9503288 C46.7042361,24.8899452 46.7042361,24.8295616 46.7090278,24.767589 C46.7122222,24.7469315 46.7218056,24.727863 46.725,24.7072055 C46.7457639,24.5912055 46.7872917,24.4799726 46.8575694,24.3814521 C46.8911111,24.3321918 46.9326389,24.2876986 46.9773611,24.2479726 C46.9949306,24.2289041 47.0156944,24.2146027 47.0348611,24.1971233 C47.0652083,24.1748767 47.09875,24.1526301 47.1306944,24.1335616 C47.1514583,24.1208493 47.1770139,24.1065479 47.2009722,24.0954247 C47.2345139,24.0795342 47.2728472,24.0652329 47.3095833,24.0556986 C47.3303472,24.0477534 47.3559028,24.0398082 47.3798611,24.0334521 C47.4389583,24.0207397 47.4964583,24.0143836 47.5539583,24.0112055 L47.5699306,24.0112055 L47.9309028,24.0112055 L48.5905556,24.0112055 L48.5953472,24.0112055 L48.8189583,24.0112055 L48.82375,24.0112055 L49.1623611,24.0112055 L49.1703472,24.0112055 L49.3284722,24.0112055 L49.8427778,24.0112055 L63.3664583,24.0112055 L63.8807639,24.0112055 L64.0372917,24.0112055 L64.046875,24.0112055 L64.3870833,24.0112055 L64.3902778,24.0112055 L64.6138889,24.0112055 L64.6234722,24.0112055 L65.2783333,24.0112055 L65.6393056,24.0112055 L65.6472917,24.0112055 C65.7127778,24.0112055 65.7750694,24.0207397 65.8341667,24.0350411 C65.8501389,24.0366301 65.8661111,24.0429863 65.8836806,24.0493425 C65.9284028,24.0620548 65.973125,24.0795342 66.0210417,24.1001918 C66.0370139,24.108137 66.0529861,24.1160822 66.0689583,24.1287945 C66.1072917,24.1510411 66.1488194,24.1764658 66.1823611,24.2034795 C66.1983333,24.2177808 66.2159028,24.2289041 66.231875,24.2416164 C66.2734028,24.2829315 66.318125,24.3306027 66.3516667,24.3814521 C66.39,24.4386575 66.4219444,24.495863 66.4475,24.5610137 L66.4506944,24.5689589 C66.4506944,24.573726 66.4506944,24.5784932 66.4554861,24.5832603 C66.4714583,24.6356986 66.4842361,24.689726 66.4954167,24.7485205 C66.4954167,24.767589 66.4954167,24.7850685 66.5002083,24.804137 C66.505,24.8486301 66.505,24.8978904 66.5002083,24.9455616 C66.4954167,24.9614521 66.4954167,24.9773425 66.4954167,24.9900548 C66.4842361,25.0552055 66.4714583,25.115589 66.4506944,25.1743836 L66.3852083,25.347589 L66.0913194,26.1278082 L66.0913194,26.1309863 L65.973125,26.4392603 L65.886875,26.6664932 L65.886875,26.6680822 L65.7878472,26.930274 L65.5961806,27.4228767 Z M56.8609722,45.6015068 L57.1149306,44.9261644 L64.0309028,26.6855616 L64.2081944,26.2104384 L64.2656944,26.0578904 L64.2656944,26.0515342 L64.3902778,25.7353151 L64.046875,25.7353151 L64.0372917,25.7353151 L63.8807639,25.7353151 L63.3664583,25.7353151 L49.8427778,25.7353151 L49.3284722,25.7353151 L49.1703472,25.7353151 L49.1623611,25.7353151 L48.82375,25.7353151 L48.9435417,26.0531233 L48.9435417,26.0610685 L49.0010417,26.2104384 L49.183125,26.6855616 L56.0943056,44.9293425 L56.3514583,45.6030959 L56.6054167,46.2736712 L56.8609722,45.6015068 Z" id="Fill-2"></path>
                <path d="M9.39009028,85.5906795 C7.73536806,85.5906795 6.09022917,85.3062411 4.49939583,84.7437205 C2.97884028,84.2082137 1.5716875,83.3866795 0.314673611,82.2997753 L2.90217361,79.2218027 C3.87009028,79.9845425 4.87474306,80.6026795 5.88897917,81.0619123 C6.98147917,81.5561041 8.19057639,81.8071726 9.48592361,81.8071726 C10.5400903,81.8071726 11.3770347,81.6085425 11.9727986,81.2160493 C12.6005069,80.8028986 12.9183542,80.2228986 12.9183542,79.4903507 L12.9183542,79.426789 C12.9183542,79.0803781 12.8512708,78.7657479 12.7202986,78.4908438 C12.5845347,78.2079945 12.3401597,77.9537479 11.9712014,77.7153918 C11.6293958,77.4961041 11.1566181,77.2768164 10.5624514,77.0607068 C9.97467361,76.8493644 9.2048125,76.6237205 8.27522917,76.3917205 C7.17154861,76.1231726 6.15890972,75.8180767 5.26286806,75.4843781 C4.38279861,75.1602137 3.6273125,74.7518301 3.01557639,74.2735288 C2.41182639,73.8031726 1.93904861,73.2104603 1.60842361,72.5128712 C1.27620139,71.808926 1.10849306,70.9206521 1.10849306,69.8671178 L1.10849306,69.8035562 C1.10849306,68.8374192 1.29217361,67.9523233 1.65314583,67.1736932 C2.0173125,66.395063 2.53321528,65.7149534 3.18328472,65.1540219 C3.83335417,64.5899123 4.62877083,64.1481589 5.54397917,63.841474 C6.46078472,63.5363781 7.48939583,63.3806521 8.59946528,63.3806521 C10.1902986,63.3806521 11.6709236,63.6190082 12.9982153,64.0861863 C14.2584236,64.5295288 15.4387708,65.1651452 16.5105069,65.9787342 L14.2360625,69.2489808 C13.3000903,68.6324329 12.3721042,68.133474 11.4744653,67.7648164 C10.5001597,67.3659671 9.51147917,67.1657479 8.53557639,67.1657479 C7.52134028,67.1657479 6.77384028,67.362789 6.25474306,67.7679945 C5.72127083,68.1779671 5.44974306,68.7023507 5.44974306,69.3252548 L5.44974306,69.3872274 C5.44974306,69.7797205 5.52800694,70.1293096 5.6829375,70.4264603 C5.83946528,70.7283781 6.12057639,70.9985151 6.5166875,71.228926 C6.88724306,71.4466247 7.39835417,71.6563781 8.03884028,71.8518301 C8.6585625,72.040926 9.45557639,72.2633918 10.4075208,72.5160493 C11.5127986,72.8084329 12.5078681,73.1389534 13.3671736,73.4996658 C14.2200903,73.858789 14.9452292,74.2910082 15.5202292,74.7852 C16.0936319,75.2762137 16.5312708,75.8578027 16.8187708,76.5172548 C17.1110625,77.1798849 17.2596042,77.9855288 17.2596042,78.9151178 L17.2596042,78.9786795 C17.2596042,80.0290356 17.0663403,80.9776932 16.6846042,81.7976384 C16.3028681,82.6128164 15.7630069,83.3072274 15.0809931,83.8602137 C14.3941875,84.4179671 13.5620347,84.8501863 12.6084931,85.1425699 C11.6453681,85.4397205 10.5624514,85.5906795 9.39009028,85.5906795" id="Fill-4"></path>
                <polygon id="Fill-6" points="19.8693056 85.2758904 24.2744444 85.2758904 24.2744444 63.6967123 19.8693056 63.6967123"></polygon>
                <path d="M38.3600278,85.6534466 C36.665375,85.6534466 35.1032917,85.3721863 33.7137083,84.8192 C32.3257222,84.2662137 31.116625,83.4891726 30.1215556,82.5087342 C29.1248889,81.5282959 28.3374583,80.3476384 27.781625,78.9953644 C27.2257917,77.6415014 26.9446806,76.1462137 26.9446806,74.5492274 L26.9446806,74.4856658 C26.9446806,72.9522411 27.2321806,71.4935014 27.7975972,70.1507616 C28.3614167,68.8112 29.1600278,67.6178301 30.1694722,66.6024329 C31.174125,65.5918027 32.3848194,64.7813918 33.7680139,64.1966247 C35.1432222,63.6134466 36.6765556,63.3178849 38.3280833,63.3178849 C39.3055833,63.3178849 40.2032222,63.3862137 40.9970417,63.5196932 C41.7892639,63.6531726 42.5351667,63.8438575 43.2187778,64.0917479 C43.8912083,64.3348712 44.5364861,64.6463233 45.1370417,65.0165699 C45.6705139,65.3439123 46.196,65.7205151 46.7039167,66.1368438 L43.9327361,69.4627068 C43.5669722,69.1639671 43.1964167,68.8906521 42.8274583,68.6507068 C42.3882222,68.3694466 41.9346111,68.1310904 41.4746111,67.9404055 C41.0098194,67.7449534 40.4987083,67.5924055 39.95725,67.4843507 C39.4173889,67.3778849 38.8152361,67.3222685 38.1715556,67.3222685 C37.2515556,67.3222685 36.3810694,67.5161315 35.5840556,67.8975014 C34.7918333,68.2741041 34.0858611,68.7905425 33.4853056,69.429337 C32.8879444,70.0665425 32.4151667,70.822926 32.0781528,71.6762411 C31.7427361,72.5263781 31.5718333,73.4512 31.5718333,74.4221041 L31.5718333,74.4856658 C31.5718333,75.5201315 31.7427361,76.4862685 32.0765556,77.357063 C32.4135694,78.2326247 32.9007222,79.0064877 33.5204444,79.6548164 C34.135375,80.3015562 34.8748889,80.8132274 35.7182222,81.1739397 C36.5567639,81.531474 37.4975278,81.7126247 38.51975,81.7126247 C40.3757222,81.7126247 41.9649583,81.2518027 43.2443333,80.3460493 L43.3433611,80.2761315 L43.3433611,76.7707068 L40.2048194,76.7707068 L40.2048194,73.0507616 L47.590375,73.0507616 L47.590375,82.2830904 C46.4882917,83.2015562 45.1689861,83.9976658 43.6628056,84.6491726 C42.1262778,85.3149808 40.3421806,85.6534466 38.3600278,85.6534466" id="Fill-8"></path>
                <polygon id="Fill-9" points="66.4150764 85.274937 55.3287569 70.8003616 55.3287569 85.274937 50.9875069 85.274937 50.9875069 63.6957589 55.1322986 63.6957589 65.8688264 77.7317589 65.8688264 63.6957589 70.2084792 63.6957589 70.2084792 85.274937"></polygon>
                <path d="M80.6201319,76.5476055 L87.2118681,76.5476055 L83.9152014,68.5451945 L80.6201319,76.5476055 Z M90.7864514,85.2746192 L88.7611736,80.3311123 L79.0740208,80.3311123 L77.0471458,85.2746192 L72.5908958,85.2746192 L81.8196458,63.6970301 L86.1385347,63.6970301 L95.3704792,85.2746192 L90.7864514,85.2746192 Z" id="Fill-10"></path>
                <polygon id="Fill-11" points="97.4415972 85.274937 97.4415972 63.6957589 101.846736 63.6957589 101.846736 81.3341151 112.894722 81.3341151 112.894722 85.274937"></polygon>
                <polygon id="Fill-12" points="107.821306 114.087907 96.7349861 99.6133315 96.7349861 114.087907 92.3937361 114.087907 92.3937361 92.5087288 96.5369306 92.5087288 107.275056 106.544729 107.275056 92.5087288 111.614708 92.5087288 111.614708 114.087907"></polygon>
                <path d="M75.7216111,105.359781 L82.3133472,105.359781 L79.0166806,97.3573699 L75.7216111,105.359781 Z M85.8863333,114.088384 L83.8626528,109.143288 L74.1755,109.143288 L72.1470278,114.088384 L67.692375,114.088384 L76.9163333,92.5092055 L81.2352222,92.5092055 L90.4719583,114.088384 L85.8863333,114.088384 Z" id="Fill-13"></path>
                <polygon id="Fill-14" points="49.3807014 114.087907 49.3807014 92.5087288 65.5941042 92.5087288 65.5941042 96.3557973 53.7219514 96.3557973 53.7219514 101.046647 64.1693819 101.046647 64.1693819 104.890537 53.7219514 104.890537 53.7219514 110.242427 65.7506319 110.242427 65.7506319 114.087907"></polygon>
                <path d="M13.1055486,96.135874 C12.0865208,96.135874 11.1425625,96.3217918 10.3040208,96.6904493 C9.46707639,97.0591068 8.73714583,97.5755452 8.13499306,98.2270521 C7.53922917,98.8737918 7.06645139,99.6349425 6.7294375,100.489847 C6.39242361,101.338395 6.22311806,102.263216 6.22311806,103.23571 L6.22311806,103.297682 C6.22311806,104.270175 6.39242361,105.199764 6.72784028,106.061025 C7.06485417,106.925463 7.55040972,107.69297 8.17172917,108.342888 C8.79145139,108.991216 9.52936806,109.512422 10.3647153,109.890614 C11.2016597,110.270395 12.1456181,110.462668 13.1710347,110.462668 C14.1708958,110.462668 15.1068681,110.275162 15.9549931,109.906504 C16.8031181,109.541025 17.5378403,109.022997 18.1383958,108.369901 C18.7357569,107.723162 19.2101319,106.962011 19.5471458,106.108696 C19.8825625,105.258559 20.0534653,104.333737 20.0534653,103.362833 L20.0534653,103.297682 C20.0534653,102.326778 19.8825625,101.398778 19.5471458,100.535929 C19.2101319,99.6714904 18.7245764,98.9039836 18.1048542,98.2540658 C17.4867292,97.607326 16.7424236,97.0877096 15.8942986,96.7063397 C15.0445764,96.3281479 14.1054097,96.135874 13.1055486,96.135874 M13.1055486,114.465463 C11.4364514,114.465463 9.87915972,114.169901 8.47999306,113.585134 C7.08082639,113.003545 5.8525625,112.204258 4.8319375,111.209518 C3.81450694,110.216367 3.01270139,109.034121 2.44888194,107.696148 C1.88346528,106.354997 1.59596528,104.896258 1.59596528,103.362833 L1.59596528,103.297682 C1.59596528,101.764258 1.88825694,100.307107 2.46325694,98.9643671 C3.04304861,97.6216274 3.85124306,96.4266685 4.86707639,95.4160384 C5.88450694,94.4038192 7.11596528,93.5934082 8.52790972,93.0102301 C9.93665972,92.4270521 11.4987431,92.1314904 13.1710347,92.1314904 C14.8385347,92.1314904 16.3958264,92.4270521 17.7965903,93.0102301 C19.1973542,93.5949973 20.4240208,94.3942849 21.4398542,95.3874356 C22.4572847,96.3774082 23.2606875,97.5596548 23.8277014,98.9008055 C24.3931181,100.243545 24.6806181,101.702285 24.6806181,103.23571 L24.6806181,103.297682 C24.6806181,104.832696 24.3867292,106.291436 23.8101319,107.630997 C23.2351319,108.975326 22.4253403,110.170285 21.4079097,111.180915 C20.3920764,112.193134 19.1606181,113.001956 17.7486736,113.585134 C16.3367292,114.169901 14.7746458,114.465463 13.1055486,114.465463" id="Fill-15"></path>
                <path d="M38.1587778,114.465781 C36.6046806,114.465781 35.141625,114.181342 33.8095417,113.620411 C32.4774583,113.05789 31.3114861,112.280849 30.3435694,111.306767 C29.3756528,110.334274 28.6089861,109.169507 28.0643333,107.844247 C27.5196806,106.520575 27.2449583,105.084082 27.2449583,103.576082 L27.2449583,103.51411 C27.2449583,102.007699 27.5196806,100.575973 28.0643333,99.2618356 C28.6089861,97.9461096 29.37725,96.7749863 30.3451667,95.7818356 C31.3130833,94.790274 32.4886389,93.9957534 33.8398889,93.4236986 C35.1911389,92.8516438 36.7069028,92.5624384 38.3456528,92.5624384 C39.3407222,92.5624384 40.259125,92.6450685 41.0800972,92.8055616 C41.8994722,92.9660548 42.6517639,93.1901096 43.3162083,93.4713699 C43.9806528,93.7510411 44.6035694,94.0974521 45.1657917,94.4963014 C45.6737083,94.8570137 46.152875,95.254274 46.5953056,95.6785479 L43.8512778,98.8248493 C43.0462778,98.1240822 42.2173194,97.5631507 41.3851667,97.1547671 C40.4763472,96.7082466 39.4429444,96.4826027 38.3137083,96.4826027 C37.3745417,96.4826027 36.4896806,96.6653425 35.6862778,97.0276438 C34.882875,97.3899452 34.1816944,97.8984384 33.6050972,98.5372329 C33.0285,99.1728493 32.5748889,99.9212877 32.2554444,100.758712 C31.936,101.594548 31.7730833,102.500301 31.7730833,103.452137 L31.7730833,103.51411 C31.7730833,104.467534 31.936,105.378055 32.2538472,106.223425 C32.5732917,107.070384 33.0221111,107.823589 33.5875278,108.459205 C34.1545417,109.099589 34.8493333,109.61126 35.6527361,109.984685 C36.4577361,110.35811 37.3521806,110.547205 38.3137083,110.547205 C39.5898889,110.547205 40.6871806,110.308849 41.5768333,109.840082 C42.3930139,109.409452 43.2139861,108.826274 44.0205833,108.10326 L46.7454444,110.841178 C46.2455139,111.362384 45.721625,111.839096 45.1865556,112.261781 C44.6019722,112.722603 43.9535,113.12463 43.2603056,113.453562 C42.5655139,113.784082 41.7940556,114.038329 40.9682917,114.208356 C40.1377361,114.379973 39.1921806,114.465781 38.1587778,114.465781" id="Fill-16"></path>
            </g>
            <g id="Group-27">
                <g id="Group-20">
                    <mask id="mask-2" fill="white">
                        <use xlink:href="#path-1"></use>
                    </mask>
                    <g id="Clip-19"></g>
                    <path d="M346.749772,-30.4096316 C346.749772,105.409167 236.493507,215.509499 100.485905,215.509499 C-35.5216972,215.509499 -145.777962,105.409167 -145.777962,-30.4096316 C-145.777962,-166.226841 -35.5216972,-276.328762 100.485905,-276.328762 C236.493507,-276.328762 346.749772,-166.226841 346.749772,-30.4096316 Z" id="Stroke-18" stroke="#E1DCDA" stroke-width="0.6" stroke-dasharray="2" mask="url(#mask-2)"></path>
                </g>
                <g id="Group-23" transform="translate(47.734807, 333.675889)">
                    <mask id="mask-4" fill="white">
                        <use xlink:href="#path-3"></use>
                    </mask>
                    <g id="Clip-22"></g>
                    <path d="M314.645251,157.339781 C314.645251,243.933441 244.349383,314.132492 157.632743,314.132492 C70.9176928,314.132492 0.621825414,243.933441 0.621825414,157.339781 C0.621825414,70.7461209 70.9176928,0.547069565 157.632743,0.547069565 C244.349383,0.547069565 314.645251,70.7461209 314.645251,157.339781 Z" id="Stroke-21" stroke="#E1DCDA" stroke-width="0.6" stroke-dasharray="2" mask="url(#mask-4)"></path>
                </g>
                <g id="Group-26" transform="translate(0.000000, 58.201581)">
                    <mask id="mask-6" fill="white">
                        <use xlink:href="#path-5"></use>
                    </mask>
                    <g id="Clip-25"></g>
                    <path d="M48.7778122,157.308077 C48.7778122,243.903326 -21.5196464,314.100788 -108.234696,314.100788 C-194.949746,314.100788 -265.245613,243.903326 -265.245613,157.308077 C-265.245613,70.7144166 -194.949746,0.515365217 -108.234696,0.515365217 C-21.5196464,0.515365217 48.7778122,70.7144166 48.7778122,157.308077 Z" id="Stroke-24" stroke="#E1DCDA" stroke-width="0.6" stroke-dasharray="2" mask="url(#mask-6)"></path>
                </g>
            </g>
            <g id="Group-44" transform="translate(138.000000, 173.000000)">
                <path d="M92.7404644,11.0689539 C91.9629729,15.989267 87.3394475,19.3501017 82.4116169,18.5719539 C77.4853797,17.7969887 74.1204983,13.1774322 74.8995831,8.25552783 C75.6770746,3.33521478 80.3006,-0.0240286957 85.2284305,0.752527826 C90.1546678,1.52908435 93.5179559,6.14704957 92.7404644,11.0689539" id="Fill-28" fill="#E5E6E7"></path>
                <path d="M91.2305695,10.8304174 C90.5853153,14.9184783 86.744061,17.7096261 82.651078,17.0635565 C78.5580949,16.4190783 75.7635864,12.5824435 76.4088407,8.49438261 C77.0556881,4.40632174 80.8969424,1.61517391 84.9899254,2.26124348 C89.0813153,2.90572174 91.8758237,6.74235652 91.2305695,10.8304174" id="Fill-30" fill="#E5E6E7"></path>
                <path d="M91.2305695,10.8304174 C90.5853153,14.9184783 86.744061,17.7096261 82.651078,17.0635565 C78.5580949,16.4190783 75.7635864,12.5824435 76.4088407,8.49438261 C77.0556881,4.40632174 80.8969424,1.61517391 84.9899254,2.26124348 C89.0813153,2.90572174 91.8758237,6.74235652 91.2305695,10.8304174 Z" id="Stroke-32" stroke="#FEFEFE"></path>
                <polygon id="Fill-34" fill="#FEFEFE" points="88.2050441 8.14652348 84.2092475 8.56821913 83.7886373 4.57722783 83.3441288 4.62496696 80.6372475 12.9809061 88.2512475 8.58890609"></polygon>
                <path d="M1.20039661,169.632089 C3.25724407,165.092097 8.60887119,163.079097 13.1543288,165.133471 C17.6981932,167.189437 19.7152102,172.534628 17.6567695,177.073028 C15.599922,181.611428 10.2482949,183.626019 5.70283729,181.570054 C1.15897288,179.51568 -0.858044068,174.170489 1.20039661,169.632089" id="Fill-36" fill="#E5E6E7"></path>
                <path d="M2.59287119,170.26145 C4.30239661,166.49165 8.74748136,164.819189 12.5234136,166.525067 C16.2977525,168.232537 17.9722271,172.672276 16.2642949,176.443667 C14.5547695,180.213467 10.1096847,181.887519 6.33375254,180.18005 C2.55941356,178.47258 0.884938983,174.032841 2.59287119,170.26145" id="Fill-38" fill="#E5E6E7"></path>
                <path d="M2.59287119,170.26145 C4.30239661,166.49165 8.74748136,164.819189 12.5234136,166.525067 C16.2977525,168.232537 17.9722271,172.672276 16.2642949,176.443667 C14.5547695,180.213467 10.1096847,181.887519 6.33375254,180.18005 C2.55941356,178.47258 0.884938983,174.032841 2.59287119,170.26145 Z" id="Stroke-40" stroke="#FEFEFE"></path>
                <polygon id="Fill-42" fill="#FEFEFE" points="4.79677288 173.65236 8.76229831 174.304795 8.10907797 178.26396 8.54880678 178.33716 13.3794508 170.998064 4.87006102 173.211569"></polygon>
            </g>
        </g>
    </g>
</svg>